<?xml version="1.0" encoding="UTF-8" standalone="no"?>
<!DOCTYPE svg PUBLIC "-//W3C//DTD SVG 1.1//EN"
 "http://www.w3.org/Graphics/SVG/1.1/DTD/svg11.dtd">
<!-- Generated by graphviz version 2.49.3 (0)
 -->
<!-- Pages: 1 -->
<svg width="389pt" height="908pt"
 viewBox="0.00 0.00 388.50 908.00" xmlns="http://www.w3.org/2000/svg" xmlns:xlink="http://www.w3.org/1999/xlink">
<g id="graph0" class="graph" transform="scale(1 1) rotate(0) translate(72 872)">
<polygon fill="#ffffff" stroke="transparent" points="-72,36 -72,-872 316.5,-872 316.5,36 -72,36"/>
<!-- /outputs/332 -->
<g id="node1" class="node">
<title>/outputs/332</title>
<polygon fill="#bcd6fc" stroke="#7c96bc" points="198.5,-764 122.5,-764 122.5,-728 198.5,-728 198.5,-764"/>
<text text-anchor="start" x="130.5" y="-743" font-family="Verdana" font-size="10.00" fill="#202020">MaxPool3x3</text>
</g>
<!-- 8782567227709464762 -->
<g id="node16" class="node">
<title>8782567227709464762</title>
<polygon fill="#bcd6fc" stroke="#7c96bc" points="233,-692 88,-692 88,-648 233,-648 233,-692"/>
<text text-anchor="start" x="96.5" y="-676" font-family="Verdana" font-size="10.00" fill="#202020">Bottleneck Residual Block</text>
<text text-anchor="start" x="216.5" y="-655" font-family="Verdana" font-size="10.00" fill="#202020">x4</text>
</g>
<!-- /outputs/332&#45;&gt;8782567227709464762 -->
<g id="edge15" class="edge">
<title>/outputs/332&#45;&gt;8782567227709464762</title>
<path fill="none" stroke="#7c96bc" d="M160.5,-727.84C160.5,-720.16 160.5,-710.88 160.5,-702.05"/>
<polygon fill="#7c96bc" stroke="#7c96bc" points="164,-702.03 160.5,-692.03 157,-702.03 164,-702.03"/>
</g>
<!-- /outputs/709 -->
<g id="node2" class="node">
<title>/outputs/709</title>
<polygon fill="#bcd6fc" stroke="#7c96bc" points="215,-612 106,-612 106,-576 215,-576 215,-612"/>
<text text-anchor="start" x="114.5" y="-591" font-family="Verdana" font-size="10.00" fill="#202020">GlobalAveragePool</text>
</g>
<!-- /outputs/710 -->
<g id="node3" class="node">
<title>/outputs/710</title>
<polygon fill="#bcd6fc" stroke="#7c96bc" points="160.5,-540 106.5,-540 106.5,-504 160.5,-504 160.5,-540"/>
<text text-anchor="start" x="117.5" y="-519" font-family="Verdana" font-size="10.00" fill="#202020">Shape</text>
</g>
<!-- /outputs/709&#45;&gt;/outputs/710 -->
<g id="edge1" class="edge">
<title>/outputs/709&#45;&gt;/outputs/710</title>
<path fill="none" stroke="#7c96bc" d="M153.83,-575.7C150.79,-567.81 147.12,-558.3 143.74,-549.55"/>
<polygon fill="#7c96bc" stroke="#7c96bc" points="146.96,-548.17 140.1,-540.1 140.43,-550.69 146.96,-548.17"/>
</g>
<!-- /outputs/717 -->
<g id="node10" class="node">
<title>/outputs/717</title>
<polygon fill="#bcd6fc" stroke="#7c96bc" points="186,-252 127,-252 127,-216 186,-216 186,-252"/>
<text text-anchor="start" x="135.5" y="-231" font-family="Verdana" font-size="10.00" fill="#202020">Reshape</text>
</g>
<!-- /outputs/709&#45;&gt;/outputs/717 -->
<g id="edge2" class="edge">
<title>/outputs/709&#45;&gt;/outputs/717</title>
<path fill="none" stroke="#7c96bc" d="M166.17,-575.73C174.35,-549.21 188.5,-496.73 188.5,-451 188.5,-451 188.5,-451 188.5,-377 188.5,-336.04 175.67,-290.02 166.26,-261.77"/>
<polygon fill="#7c96bc" stroke="#7c96bc" points="169.53,-260.53 162.98,-252.21 162.91,-262.8 169.53,-260.53"/>
</g>
<!-- /outputs/712 -->
<g id="node5" class="node">
<title>/outputs/712</title>
<polygon fill="#bcd6fc" stroke="#7c96bc" points="151.5,-468 97.5,-468 97.5,-432 151.5,-432 151.5,-468"/>
<text text-anchor="start" x="107.5" y="-447" font-family="Verdana" font-size="10.00" fill="#202020">Gather</text>
</g>
<!-- /outputs/710&#45;&gt;/outputs/712 -->
<g id="edge3" class="edge">
<title>/outputs/710&#45;&gt;/outputs/712</title>
<path fill="none" stroke="#7c96bc" d="M131.28,-503.7C130.28,-495.98 129.09,-486.71 127.99,-478.11"/>
<polygon fill="#7c96bc" stroke="#7c96bc" points="131.45,-477.58 126.7,-468.1 124.5,-478.47 131.45,-477.58"/>
</g>
<!-- /outputs/711 -->
<g id="node4" class="node">
<title>/outputs/711</title>
<polygon fill="#bcd6fc" stroke="#7c96bc" points="88,-540 27,-540 27,-504 88,-504 88,-540"/>
<text text-anchor="start" x="35.5" y="-519" font-family="Verdana" font-size="10.00" fill="#202020">Constant</text>
</g>
<!-- /outputs/711&#45;&gt;/outputs/712 -->
<g id="edge4" class="edge">
<title>/outputs/711&#45;&gt;/outputs/712</title>
<path fill="none" stroke="#7c96bc" d="M74.06,-503.7C82.18,-495.22 92.09,-484.86 100.97,-475.58"/>
<polygon fill="#7c96bc" stroke="#7c96bc" points="103.74,-477.75 108.13,-468.1 98.69,-472.91 103.74,-477.75"/>
</g>
<!-- /outputs/714 -->
<g id="node7" class="node">
<title>/outputs/714</title>
<polygon fill="#bcd6fc" stroke="#7c96bc" points="160,-396 89,-396 89,-360 160,-360 160,-396"/>
<text text-anchor="start" x="97.5" y="-375" font-family="Verdana" font-size="10.00" fill="#202020">Unsqueeze</text>
</g>
<!-- /outputs/712&#45;&gt;/outputs/714 -->
<g id="edge5" class="edge">
<title>/outputs/712&#45;&gt;/outputs/714</title>
<path fill="none" stroke="#7c96bc" d="M124.5,-431.7C124.5,-423.98 124.5,-414.71 124.5,-406.11"/>
<polygon fill="#7c96bc" stroke="#7c96bc" points="128,-406.1 124.5,-396.1 121,-406.1 128,-406.1"/>
</g>
<!-- /outputs/713 -->
<g id="node6" class="node">
<title>/outputs/713</title>
<polygon fill="#bcd6fc" stroke="#7c96bc" points="66,-468 5,-468 5,-432 66,-432 66,-468"/>
<text text-anchor="start" x="13.5" y="-447" font-family="Verdana" font-size="10.00" fill="#202020">Constant</text>
</g>
<!-- /outputs/715 -->
<g id="node8" class="node">
<title>/outputs/715</title>
<polygon fill="#bcd6fc" stroke="#7c96bc" points="71,-396 0,-396 0,-360 71,-360 71,-396"/>
<text text-anchor="start" x="8.5" y="-375" font-family="Verdana" font-size="10.00" fill="#202020">Unsqueeze</text>
</g>
<!-- /outputs/713&#45;&gt;/outputs/715 -->
<g id="edge6" class="edge">
<title>/outputs/713&#45;&gt;/outputs/715</title>
<path fill="none" stroke="#7c96bc" d="M35.5,-431.7C35.5,-423.98 35.5,-414.71 35.5,-406.11"/>
<polygon fill="#7c96bc" stroke="#7c96bc" points="39,-406.1 35.5,-396.1 32,-406.1 39,-406.1"/>
</g>
<!-- /outputs/716 -->
<g id="node9" class="node">
<title>/outputs/716</title>
<polygon fill="#bcd6fc" stroke="#7c96bc" points="151.5,-324 97.5,-324 97.5,-288 151.5,-288 151.5,-324"/>
<text text-anchor="start" x="107.5" y="-303" font-family="Verdana" font-size="10.00" fill="#202020">Concat</text>
</g>
<!-- /outputs/714&#45;&gt;/outputs/716 -->
<g id="edge7" class="edge">
<title>/outputs/714&#45;&gt;/outputs/716</title>
<path fill="none" stroke="#7c96bc" d="M124.5,-359.7C124.5,-351.98 124.5,-342.71 124.5,-334.11"/>
<polygon fill="#7c96bc" stroke="#7c96bc" points="128,-334.1 124.5,-324.1 121,-334.1 128,-334.1"/>
</g>
<!-- /outputs/715&#45;&gt;/outputs/716 -->
<g id="edge8" class="edge">
<title>/outputs/715&#45;&gt;/outputs/716</title>
<path fill="none" stroke="#7c96bc" d="M57.5,-359.7C68.71,-350.88 82.5,-340.03 94.65,-330.47"/>
<polygon fill="#7c96bc" stroke="#7c96bc" points="97.06,-333.04 102.75,-324.1 92.73,-327.54 97.06,-333.04"/>
</g>
<!-- /outputs/716&#45;&gt;/outputs/717 -->
<g id="edge9" class="edge">
<title>/outputs/716&#45;&gt;/outputs/717</title>
<path fill="none" stroke="#7c96bc" d="M132.41,-287.7C136.05,-279.73 140.45,-270.1 144.49,-261.26"/>
<polygon fill="#7c96bc" stroke="#7c96bc" points="147.71,-262.65 148.68,-252.1 141.34,-259.74 147.71,-262.65"/>
</g>
<!-- /outputs/718 -->
<g id="node11" class="node">
<title>/outputs/718</title>
<polygon fill="#bcd6fc" stroke="#7c96bc" points="183.5,-180 129.5,-180 129.5,-144 183.5,-144 183.5,-180"/>
<text text-anchor="start" x="141.5" y="-159" font-family="Verdana" font-size="10.00" fill="#202020">Linear</text>
</g>
<!-- /outputs/717&#45;&gt;/outputs/718 -->
<g id="edge10" class="edge">
<title>/outputs/717&#45;&gt;/outputs/718</title>
<path fill="none" stroke="#7c96bc" d="M156.5,-215.7C156.5,-207.98 156.5,-198.71 156.5,-190.11"/>
<polygon fill="#7c96bc" stroke="#7c96bc" points="160,-190.1 156.5,-180.1 153,-190.1 160,-190.1"/>
</g>
<!-- /outputs/719 -->
<g id="node12" class="node">
<title>/outputs/719</title>
<polygon fill="#bcd6fc" stroke="#7c96bc" points="183.5,-108 129.5,-108 129.5,-72 183.5,-72 183.5,-108"/>
<text text-anchor="start" x="145.5" y="-87" font-family="Verdana" font-size="10.00" fill="#202020">Relu</text>
</g>
<!-- /outputs/718&#45;&gt;/outputs/719 -->
<g id="edge11" class="edge">
<title>/outputs/718&#45;&gt;/outputs/719</title>
<path fill="none" stroke="#7c96bc" d="M156.5,-143.7C156.5,-135.98 156.5,-126.71 156.5,-118.11"/>
<polygon fill="#7c96bc" stroke="#7c96bc" points="160,-118.1 156.5,-108.1 153,-118.1 160,-118.1"/>
</g>
<!-- /outputs/720 -->
<g id="node13" class="node">
<title>/outputs/720</title>
<polygon fill="#bcd6fc" stroke="#7c96bc" points="147.5,-36 93.5,-36 93.5,0 147.5,0 147.5,-36"/>
<text text-anchor="start" x="105.5" y="-15" font-family="Verdana" font-size="10.00" fill="#202020">Linear</text>
</g>
<!-- /outputs/719&#45;&gt;/outputs/720 -->
<g id="edge12" class="edge">
<title>/outputs/719&#45;&gt;/outputs/720</title>
<path fill="none" stroke="#7c96bc" d="M147.6,-71.7C143.5,-63.73 138.55,-54.1 134.01,-45.26"/>
<polygon fill="#7c96bc" stroke="#7c96bc" points="136.98,-43.4 129.3,-36.1 130.76,-46.6 136.98,-43.4"/>
</g>
<!-- /outputs/721 -->
<g id="node14" class="node">
<title>/outputs/721</title>
<polygon fill="#bcd6fc" stroke="#7c96bc" points="219.5,-36 165.5,-36 165.5,0 219.5,0 219.5,-36"/>
<text text-anchor="start" x="177.5" y="-15" font-family="Verdana" font-size="10.00" fill="#202020">Linear</text>
</g>
<!-- /outputs/719&#45;&gt;/outputs/721 -->
<g id="edge13" class="edge">
<title>/outputs/719&#45;&gt;/outputs/721</title>
<path fill="none" stroke="#7c96bc" d="M165.4,-71.7C169.5,-63.73 174.45,-54.1 178.99,-45.26"/>
<polygon fill="#7c96bc" stroke="#7c96bc" points="182.24,-46.6 183.7,-36.1 176.02,-43.4 182.24,-46.6"/>
</g>
<!-- 5078033057026575352 -->
<g id="node15" class="node">
<title>5078033057026575352</title>
<polygon fill="#bcd6fc" stroke="#7c96bc" points="244.5,-836 76.5,-836 76.5,-800 244.5,-800 244.5,-836"/>
<text text-anchor="start" x="84.5" y="-815" font-family="Verdana" font-size="10.00" fill="#202020">Conv7x7 &gt; BatchNorm &gt; Relu</text>
</g>
<!-- 5078033057026575352&#45;&gt;/outputs/332 -->
<g id="edge14" class="edge">
<title>5078033057026575352&#45;&gt;/outputs/332</title>
<path fill="none" stroke="#7c96bc" d="M160.5,-799.7C160.5,-791.98 160.5,-782.71 160.5,-774.11"/>
<polygon fill="#7c96bc" stroke="#7c96bc" points="164,-774.1 160.5,-764.1 157,-774.1 164,-774.1"/>
</g>
<!-- 8782567227709464762&#45;&gt;/outputs/709 -->
<g id="edge16" class="edge">
<title>8782567227709464762&#45;&gt;/outputs/709</title>
<path fill="none" stroke="#7c96bc" d="M160.5,-647.99C160.5,-640.06 160.5,-630.91 160.5,-622.48"/>
<polygon fill="#7c96bc" stroke="#7c96bc" points="164,-622.31 160.5,-612.31 157,-622.31 164,-622.31"/>
</g>
</g>
</svg>
